HIERARCHY
ROOT Hips
{
	OFFSET 0.00000 0.00000 0.00000
	CHANNELS 6 Xposition Yposition Zposition Zrotation Yrotation Xrotation 
	JOINT LHipJoint
	{
		OFFSET 0 0 0
		CHANNELS 3 Zrotation Yrotation Xrotation
		JOINT LeftUpLeg
		{
			OFFSET 1.64549 -1.70879 0.84566
			CHANNELS 3 Zrotation Yrotation Xrotation
			JOINT LeftLeg
			{
				OFFSET 2.24963 -6.18082 0.00000
				CHANNELS 3 Zrotation Yrotation Xrotation
				JOINT LeftFoot
				{
					OFFSET 2.71775 -7.46697 0.00000
					CHANNELS 3 Zrotation Yrotation Xrotation
					JOINT LeftToeBase
					{
						OFFSET 0.18768 -0.51564 2.24737
						CHANNELS 3 Zrotation Yrotation Xrotation
						End Site
						{
							OFFSET 0.00000 -0.00000 1.15935
						}
					}
				}
			}
		}
	}
	JOINT RHipJoint
	{
		OFFSET 0 0 0
		CHANNELS 3 Zrotation Yrotation Xrotation
		JOINT RightUpLeg
		{
			OFFSET -1.58830 -1.70879 0.84566
			CHANNELS 3 Zrotation Yrotation Xrotation
			JOINT RightLeg
			{
				OFFSET -2.25006 -6.18201 0.00000
				CHANNELS 3 Zrotation Yrotation Xrotation
				JOINT RightFoot
				{
					OFFSET -2.72829 -7.49593 0.00000
					CHANNELS 3 Zrotation Yrotation Xrotation
					JOINT RightToeBase
					{
						OFFSET -0.21541 -0.59185 2.10643
						CHANNELS 3 Zrotation Yrotation Xrotation
						End Site
						{
							OFFSET -0.00000 -0.00000 1.09838
						}
					}
				}
			}
		}
	}
	JOINT LowerBack
	{
		OFFSET 0 0 0
		CHANNELS 3 Zrotation Yrotation Xrotation
		JOINT Spine
		{
			OFFSET 0.03142 2.10496 -0.11038
			CHANNELS 3 Zrotation Yrotation Xrotation
			JOINT Spine1
			{
				OFFSET -0.01863 2.10897 -0.06956
				CHANNELS 3 Zrotation Yrotation Xrotation
				JOINT Neck
				{
					OFFSET 0 0 0
					CHANNELS 3 Zrotation Yrotation Xrotation
					JOINT Neck1
					{
						OFFSET -0.02267 1.73238 0.00451
						CHANNELS 3 Zrotation Yrotation Xrotation
						JOINT Head
						{
							OFFSET -0.05808 1.54724 -0.61749
							CHANNELS 3 Zrotation Yrotation Xrotation
							End Site
							{
								OFFSET -0.01396 1.71468 -0.21082
							}
						}
					}
				}
				JOINT LeftShoulder
				{
					OFFSET 0 0 0
					CHANNELS 3 Zrotation Yrotation Xrotation
					JOINT LeftArm
					{
						OFFSET 3.44898 0.50298 0.21920
						CHANNELS 3 Zrotation Yrotation Xrotation
						JOINT LeftForeArm
						{
							OFFSET 5.41917 -0.00000 -0.00000
							CHANNELS 3 Zrotation Yrotation Xrotation
							JOINT LeftHand
							{
								OFFSET 2.44373 -0.00000 0.00000
								CHANNELS 3 Zrotation Yrotation Xrotation
								JOINT LeftFingerBase
								{
									OFFSET 0 0 0
									CHANNELS 3 Zrotation Yrotation Xrotation
									JOINT LeftHandIndex1
									{
										OFFSET 0.72750 -0.00000 0.00000
										CHANNELS 3 Zrotation Yrotation Xrotation
										End Site
										{
											OFFSET 0.58653 -0.00000 0.00000
										}
									}
								}
								JOINT LThumb
								{
									OFFSET 0 0 0
									CHANNELS 3 Zrotation Yrotation Xrotation
									End Site
									{
										OFFSET 0.59549 -0.00000 0.59549
									}
								}
							}
						}
					}
				}
				JOINT RightShoulder
				{
					OFFSET 0 0 0
					CHANNELS 3 Zrotation Yrotation Xrotation
					JOINT RightArm
					{
						OFFSET -3.23015 0.55830 0.31051
						CHANNELS 3 Zrotation Yrotation Xrotation
						JOINT RightForeArm
						{
							OFFSET -5.58976 -0.00010 0.00014
							CHANNELS 3 Zrotation Yrotation Xrotation
							JOINT RightHand
							{
								OFFSET -2.48060 -0.00000 0.00000
								CHANNELS 3 Zrotation Yrotation Xrotation
								JOINT RightFingerBase
								{
									OFFSET 0 0 0
									CHANNELS 3 Zrotation Yrotation Xrotation
									JOINT RightHandIndex1
									{
										OFFSET -0.81601 -0.00000 0.00000
										CHANNELS 3 Zrotation Yrotation Xrotation
										End Site
										{
											OFFSET -0.65789 -0.00000 0.00000
										}
									}
								}
								JOINT RThumb
								{
									OFFSET 0 0 0
									CHANNELS 3 Zrotation Yrotation Xrotation
									End Site
									{
										OFFSET -0.66793 -0.00000 0.66793
									}
								}
							}
						}
					}
				}
			}
		}
	}
}
MOTION
Frames: 8
Frame Time: 0.0212766
0.00 0.00 0.00 0 0 0 0 0 0 -21 0 0 0 0 0 0 0 0 0 0 0 0 0 0 21 0 0 0 0 0 0 0 0 0 0 0 0 0 0 0 0 0 0 0 0 0 0 -16 0 0 21 0 0 11 0 0 0 -8 0 0 0 0 0 0 0 0 0 0 0 0 0 0 0 0 0 0 0 0 8 0 0 0 0 0 0 0 0 0 0 0 0 0 0 0 0 0
0.00 0.00 0.00 -3.1486 9.0386 30.2798 0.0000 0.0000 0.0000 -26.1430 10.2831 -26.8150 4.3609 12.6258 37.9834 -0.2119 43.1962 30.2074 0.0203 -0.9193 -2.5267 0.0000 0.0000 0.0000 28.8789 17.9833 -40.9000 -2.3860 -9.6277 27.7793 -2.3609 -19.2501 -40.8724 -1.4456 -7.6007 21.5078 3.8294 -2.9418 -18.5261 5.2883 -4.4081 -11.9247 2.7515 -2.2424 -2.3641 -2.3673 -7.3231 -15.4018 -2.5666 -9.8146 41.0362 -2.6442 -4.7433 17.7342 0.0000 0.0000 0.0000 -86.2414 26.3256 31.1606 17.3716 -27.3450 -4.2566 -0.0000 0.0000 -5.9870 1.7584 16.6909 0.5052 -7.1250 0.0000 -0.0000 -24.0665 45.2020 -0.1275 0.0000 0.0000 0.0000 74.5943 -21.5609 29.4407 -12.8194 21.0220 -2.3881 0.0000 -0.0000 -17.9071 0.5095 14.0713 0.1239 7.1250 -0.0000 -0.0000 18.8913 -16.3495 13.5758
0.00 0.00 0.00 -4.0291 8.6752 29.4752 0.0000 0.0000 0.0000 -25.3938 10.9728 -25.0531 4.1355 12.3385 36.9404 -4.4748 48.2899 19.2438 0.5386 4.7023 13.0614 0.0000 0.0000 0.0000 30.4256 16.6915 -40.2538 -2.4437 -9.7349 28.1223 -1.6807 -20.2599 -38.5637 -0.8000 -5.7087 15.9416 4.7508 -1.3349 -18.2044 4.6978 -2.3427 -12.5085 1.9708 -1.2723 -3.2997 3.1151 -0.5931 -18.3749 -0.5220 -2.1737 44.4468 -1.3097 -0.3293 20.8007 0.0000 -0.0000 0.0000 -86.7443 28.6956 33.2877 16.8613 -26.6746 -4.0249 -0.0000 0.0000 -6.5669 1.5782 16.7343 0.4545 -7.1250 0.0000 -0.0000 -24.2412 45.2200 -0.1401 0.0000 -0.0000 0.0000 79.9391 -23.0116 20.1726 -11.4344 18.9510 -1.9146 0.0000 -0.0000 -20.1830 -16.5232 19.2150 -5.5763 7.1250 -0.0000 -0.0000 7.5978 -10.1397 6.1978
0.00 0.00 0.00 -4.7625 6.3826 28.1412 0.0000 0.0000 0.0000 -26.1739 13.6868 -25.0838 4.1509 12.3585 37.0122 0.9702 41.5206 33.3599 0.0008 -0.1865 -0.5125 0.0000 0.0000 0.0000 30.9337 16.1244 -38.8241 -2.4567 -9.7588 28.1991 -1.7760 -18.1842 -37.1156 -1.0200 -6.4250 18.0226 6.0289 -0.1083 -18.9659 5.0421 -1.1299 -10.7248 1.7524 -0.6711 -0.9906 -0.4248 -2.6157 -12.7744 -1.7981 -3.3139 42.8791 -1.3735 -1.6352 18.1410 0.0000 -0.0000 0.0000 -88.6541 26.3847 35.0870 15.5625 -24.9238 -3.4595 -0.0000 0.0000 -2.3356 -1.7867 16.0408 -0.4939 -7.1250 0.0000 -0.0000 -26.8317 44.2002 0.5731 0.0000 -0.0000 0.0000 84.5518 -17.4228 -1.8228 -6.8706 11.7061 -0.7052 0.0000 -0.0000 -7.2673 -18.6351 19.4907 -6.4196 7.1250 -0.0000 -0.0000 6.2435 -9.5952 5.1469
0.00 0.00 0.00 -4.5056 7.1239 27.1568 0.0000 0.0000 0.0000 -26.8648 13.1249 -28.2338 5.1648 13.5671 41.5301 -7.7343 50.4326 9.4219 2.2888 9.4434 27.1924 0.0000 0.0000 0.0000 30.2548 15.9896 -40.5472 -2.6138 -10.0419 29.1127 -0.7361 -20.6568 -33.9376 -0.9322 -6.1503 17.2213 5.2091 -0.5163 -15.4230 5.0677 -1.2897 -9.9706 2.2298 -0.7275 -1.9715 0.5337 -3.3685 -8.4972 -0.7740 -5.0969 40.6087 -1.1981 -2.1513 15.7513 -0.0000 0.0000 0.0000 -86.1049 24.6733 47.7407 16.1728 -25.7543 -3.7207 -0.0000 0.0000 -2.2833 0.0873 17.0247 0.0256 -7.1250 0.0000 -0.0000 -25.6567 45.3039 -0.2063 -0.0000 0.0000 0.0000 68.5880 -18.0886 59.9634 -17.7856 27.8818 -4.4485 0.0000 -0.0000 -5.1586 0.9066 13.0863 0.2053 7.1250 -0.0000 -0.0000 19.2504 -17.2885 13.4447
0.00 0.00 0.00 -4.6448 6.5486 26.6355 0.0000 0.0000 0.0000 -27.3510 14.3228 -28.4068 5.2802 13.6926 42.0198 -4.7789 46.6228 15.7811 1.5572 7.8754 22.3364 0.0000 0.0000 0.0000 30.3589 16.1097 -39.5169 -2.5611 -9.9482 28.8093 -0.9810 -19.7088 -34.3043 -1.2258 -7.0221 19.7809 5.1194 -1.0447 -15.9150 5.5812 -2.0486 -9.7303 2.7045 -1.0868 -1.4311 1.4426 -2.9836 -6.8792 -1.6512 -4.3885 40.4586 -1.5825 -1.8582 15.2317 0.0000 0.0000 0.0000 -84.9319 25.4938 53.1230 17.1102 -27.0029 -4.1373 -0.0000 0.0000 -4.6361 -1.2433 17.4329 -0.3725 -7.1250 0.0000 -0.0000 -26.9856 45.5079 -0.3653 0.0000 0.0000 0.0000 52.5137 -16.7157 79.0946 -32.7350 43.1254 -13.2406 0.0000 0.0000 3.2931 8.9295 11.8644 1.8503 7.1250 -0.0000 -0.0000 24.5805 -18.4160 17.2155
0.00 0.00 0.00 -5.5733 5.7473 26.1044 0.0000 0.0000 0.0000 -26.9473 15.3978 -28.2596 5.2767 13.6887 42.0046 -1.9027 42.2508 22.7502 0.3068 3.5612 9.8452 0.0000 0.0000 0.0000 31.1454 16.4120 -39.2697 -2.6355 -10.0802 29.2368 -0.9132 -19.5953 -33.7885 -1.1727 -6.8735 19.3413 5.6461 -1.7315 -17.3684 6.8777 -3.1824 -9.7896 3.5826 -1.6393 -0.6938 1.9065 -2.5171 -3.9057 -3.4269 -3.1254 41.3812 -2.2035 -1.4875 14.9788 -0.0000 0.0000 0.0000 -83.1360 27.3620 60.6457 19.5057 -30.0422 -5.2816 -0.0000 0.0000 -6.2124 -4.0182 16.0162 -1.1103 -7.1250 0.0000 -0.0000 -28.6980 43.9225 0.8365 -0.0000 0.0000 0.0000 32.9164 -10.6218 89.0123 -70.9203 58.5788 -43.5553 0.0000 0.0000 7.3235 29.4478 1.2126 0.6845 7.1250 -0.0000 -0.0000 39.0244 -25.9375 23.8706
0.00 0.00 0.00 -5.9611 4.5660 26.3605 0.0000 0.0000 0.0000 -27.1318 15.6392 -28.8413 5.3173 13.7325 42.1762 -0.3259 42.0545 28.8895 0.0027 0.3383 0.9294 0.0000 0.0000 0.0000 31.7251 16.2580 -39.2187 -2.5813 -9.9842 28.9255 -1.0367 -18.0072 -32.8361 -1.2312 -7.0370 19.8249 5.5804 -1.5833 -18.6084 7.2615 -3.1384 -9.5516 3.9953 -1.5939 0.2261 2.0773 -2.4465 -3.1300 -4.0031 -2.8400 41.6512 -2.4340 -1.4101 14.9317 0.0000 -0.0000 0.0000 -82.6956 26.8657 62.1880 19.8607 -30.4741 -5.4605 -0.0000 0.0000 -5.5449 -5.2641 15.1207 -1.3768 -7.1250 0.0000 -0.0000 -29.3344 42.9946 1.6022 0.0000 -0.0000 0.0000 28.8496 -8.2605 84.5634 -89.5478 59.9992 -59.6084 0.0000 -0.0000 -0.4192 39.2349 -2.7914 -2.2773 7.1250 -0.0000 -0.0000 44.2021 -26.7351 29.0951
